# xmcd
#
# Track frame offsets: 
#        150
#        21455
#        56610
#        95655
#        130730
#        155727
#        215032
#        254292
#        278175
#
# Disc length: 3895 seconds
#
# Revision: 2
# Processed by: cddbd v1.5.2PL0 Copyright (c) Steve Scherf et al.
# Submitted via: ExactAudioCopy v0.95b2
#
DISCID=880f3509
DTITLE=Dean Evenson and Tom Barabas - Soaring
DYEAR=1996
DGENRE=New Age
TTITLE0=High Flying
TTITLE1=Heartland Flight
TTITLE2=Heather Breeze
TTITLE3=Vanilla Float
TTITLE4=Over the Beach
TTITLE5=Soaring
TTITLE6=Serene Sojourn
TTITLE7=Spiral
TTITLE8=Glide Path
EXTD=YEAR: 1996
EXTT0=
EXTT1=
EXTT2=
EXTT3=
EXTT4=
EXTT5=
EXTT6=
EXTT7=
EXTT8=
PLAYORDER=
